<svg width="63" height="112" viewBox="0 0 63 112" fill="none" xmlns="http://www.w3.org/2000/svg">
<g filter="url(#filter0_dd_1:3)">
<path d="M6.34933 95.4274L23.7867 95.4821C19.1607 90.8269 16.5088 84.467 15.831 76.4024L4.29979 76.3662L6.43278 68.8494L15.7843 68.8787C16.467 60.4433 19.1826 53.9831 23.9311 49.498C28.6327 45.0127 35.0148 42.7827 43.0772 42.808L14.0971 1.58404L14.1 0.669981L23.4515 0.699341L54.0422 44.0378L54.0926 50.3661L43.4755 50.3328C38.1316 50.3629 33.6966 52.0599 30.1704 55.4238C26.5971 58.8345 24.4971 63.3279 23.8702 68.9041L58.2528 69.0121L56.1199 76.5288L23.8466 76.4275C24.5306 82.5234 26.719 87.2178 30.4118 90.5107C34.0575 93.8503 38.9273 95.5297 45.021 95.5488L57.396 95.5876L55.1924 103.175L4.21613 103.014L6.34933 95.4274Z" fill="white"/>
</g>
<defs>
<filter id="filter0_dd_1:3" x="0.216125" y="0.639957" width="62.2508" height="110.544" filterUnits="userSpaceOnUse" color-interpolation-filters="sRGB">
<feFlood flood-opacity="0" result="BackgroundImageFix"/>
<feColorMatrix in="SourceAlpha" type="matrix" values="0 0 0 0 0 0 0 0 0 0 0 0 0 0 0 0 0 0 127 0" result="hardAlpha"/>
<feOffset dy="4"/>
<feGaussianBlur stdDeviation="2"/>
<feComposite in2="hardAlpha" operator="out"/>
<feColorMatrix type="matrix" values="0 0 0 0 0 0 0 0 0 0 0 0 0 0 0 0 0 0 0.25 0"/>
<feBlend mode="normal" in2="BackgroundImageFix" result="effect1_dropShadow_1:3"/>
<feColorMatrix in="SourceAlpha" type="matrix" values="0 0 0 0 0 0 0 0 0 0 0 0 0 0 0 0 0 0 127 0" result="hardAlpha"/>
<feOffset dy="4"/>
<feGaussianBlur stdDeviation="2"/>
<feComposite in2="hardAlpha" operator="out"/>
<feColorMatrix type="matrix" values="0 0 0 0 0 0 0 0 0 0 0 0 0 0 0 0 0 0 0.25 0"/>
<feBlend mode="normal" in2="effect1_dropShadow_1:3" result="effect2_dropShadow_1:3"/>
<feBlend mode="normal" in="SourceGraphic" in2="effect2_dropShadow_1:3" result="shape"/>
</filter>
</defs>
</svg>
